<?xml version="1.0" encoding="UTF-8"?>
<svg xmlns="http://www.w3.org/2000/svg" xmlns:xlink="http://www.w3.org/1999/xlink" width="20px" height="20px" viewBox="0 0 20 20" version="1.1">
<g id="surface1">
<path style=" stroke:none;fill-rule:nonzero;fill:rgb(0%,0%,0%);fill-opacity:1;" d="M 15.832031 3.332031 C 16.753906 3.332031 17.5 4.078125 17.5 5 L 17.5 15 C 17.5 15.921875 16.753906 16.667969 15.832031 16.667969 L 4.167969 16.667969 C 3.246094 16.667969 2.5 15.921875 2.5 15 L 2.5 5 C 2.5 4.078125 3.246094 3.332031 4.167969 3.332031 Z M 15.832031 8.332031 L 4.167969 8.332031 L 4.167969 14.167969 C 4.167969 14.59375 4.488281 14.945312 4.902344 14.996094 L 5 15 L 15 15 C 15.425781 15 15.777344 14.679688 15.828125 14.261719 L 15.832031 14.167969 Z M 5 5 C 4.539062 5 4.167969 5.375 4.167969 5.832031 C 4.167969 6.292969 4.539062 6.667969 5 6.667969 C 5.460938 6.667969 5.832031 6.292969 5.832031 5.832031 C 5.832031 5.375 5.460938 5 5 5 Z M 7.5 5 C 7.039062 5 6.667969 5.375 6.667969 5.832031 C 6.667969 6.292969 7.039062 6.667969 7.5 6.667969 C 7.960938 6.667969 8.332031 6.292969 8.332031 5.832031 C 8.332031 5.375 7.960938 5 7.5 5 Z M 10 5 C 9.539062 5 9.167969 5.375 9.167969 5.832031 C 9.167969 6.292969 9.539062 6.667969 10 6.667969 C 10.460938 6.667969 10.832031 6.292969 10.832031 5.832031 C 10.832031 5.375 10.460938 5 10 5 Z M 10 5 "/>
</g>
</svg>
